<svg width="1073" height="528" viewBox="0 0 1073 528" fill="none" xmlns="http://www.w3.org/2000/svg">
<path d="M329.02 398.784C329.02 398.784 356.028 321.539 364.416 244.587C372.804 167.635 358.478 128.525 358.478 128.525" stroke="#FC62FF" stroke-width="100" stroke-linecap="round"/>
<path d="M358.209 128.133C358.209 128.133 321.336 255.345 257.367 341.031C193.398 426.716 188.142 457.055 188.142 457.055" stroke="url(#paint0_linear)" stroke-width="100" stroke-linecap="round"/>
<path d="M187.754 457.846C187.754 457.846 220.564 348.281 232.574 238.099C244.584 127.916 229.934 70.8789 229.934 70.8789" stroke="#FC62FF" stroke-width="100" stroke-linecap="round"/>
<path d="M229.391 70.3842C229.391 70.3842 218.445 150.242 154.476 235.928C90.5069 321.613 98.3232 303 98.3232 303" stroke="url(#paint1_linear)" stroke-width="100" stroke-linecap="round"/>
<path d="M475.85 240.264H595.354V209.03H527.066L595.354 124.252V96.7043H480.506V128.908H546.078L475.85 213.686V240.264ZM680.528 242.398C722.432 242.398 740.668 220.67 740.668 182.646V96.7043H702.644V182.452C702.644 202.24 696.436 211.164 680.916 211.164C665.396 211.164 658.994 202.24 658.994 182.452V96.7043H620.194V182.646C620.194 220.67 638.624 242.398 680.528 242.398ZM774.136 240.264H808.668V149.472H809.056C812.16 168.29 813.906 174.692 817.204 186.332L831.948 240.264H866.092L881.224 186.332C884.328 175.274 886.656 166.156 888.984 151.412H889.372V240.264H926.426V96.7043H873.852L851.154 194.092H850.766L825.546 96.7043H774.136V240.264ZM484.386 432.264H547.048C571.298 432.264 600.398 423.728 600.398 392.494C600.398 368.632 587.206 360.29 569.746 357.186V356.798C584.102 354.082 596.906 344.77 596.906 324.012C596.906 292.39 568.582 288.704 544.72 288.704H484.386V432.264ZM522.41 345.934V318.386H541.228C554.808 318.386 560.046 323.624 560.046 332.16C560.046 340.502 554.808 345.934 540.84 345.934H522.41ZM522.41 403.164V372.706H541.422C556.166 372.706 562.568 377.75 562.568 387.644C562.568 397.538 556.36 403.164 541.81 403.164H522.41ZM617.152 432.264H652.46L661.772 405.492H706.974L715.704 432.264H754.892L704.064 288.122H667.98L617.152 432.264ZM670.89 377.944L684.664 338.174H685.052L698.244 377.944H670.89Z" fill="url(#paint2_radial)"/>
<path d="M754.107 319.923C754.107 315.057 755.228 310.541 757.468 306.374C759.732 302.206 762.852 298.93 766.826 296.545C770.825 294.137 775.137 292.932 779.762 292.932C784.387 292.932 788.687 294.137 792.661 296.545C796.66 298.93 799.779 302.206 802.02 306.374C804.284 310.541 805.416 315.057 805.416 319.923C805.416 324.837 804.272 329.39 801.983 333.582C799.695 337.749 796.563 341.025 792.589 343.41C788.638 345.794 784.363 346.987 779.762 346.987C775.113 346.987 770.801 345.782 766.826 343.374C762.876 340.965 759.768 337.677 757.504 333.509C755.24 329.342 754.107 324.813 754.107 319.923ZM800.972 319.923C800.972 315.925 800.068 312.215 798.262 308.794C796.455 305.35 793.902 302.604 790.602 300.556C787.301 298.485 783.688 297.449 779.762 297.449C775.932 297.449 772.367 298.436 769.066 300.412C765.79 302.387 763.213 305.109 761.334 308.578C759.455 312.046 758.516 315.828 758.516 319.923C758.516 324.018 759.443 327.8 761.298 331.269C763.177 334.738 765.754 337.484 769.03 339.507C772.33 341.507 775.908 342.506 779.762 342.506C783.616 342.506 787.193 341.483 790.493 339.435C793.817 337.388 796.395 334.629 798.226 331.161C800.056 327.692 800.972 323.946 800.972 319.923ZM774.559 322.669V334.846H769.103V304.133H779.256C782.893 304.133 785.76 304.964 787.855 306.626C789.951 308.264 790.999 310.601 790.999 313.636C790.999 316.334 789.638 318.43 786.916 319.923C788.385 320.67 789.409 321.718 789.987 323.067C790.59 324.392 790.891 326.042 790.891 328.017C790.891 329.992 790.927 331.389 790.999 332.208C791.095 333.028 791.264 333.714 791.505 334.268V334.846H785.904C785.591 334.027 785.435 331.691 785.435 327.836C785.435 326.006 785.037 324.693 784.242 323.898C783.447 323.079 782.122 322.669 780.268 322.669H774.559ZM774.559 317.828H779.473C781.255 317.828 782.713 317.442 783.845 316.671C785.001 315.901 785.579 314.889 785.579 313.636C785.579 311.95 785.146 310.758 784.278 310.059C783.435 309.336 781.894 308.963 779.653 308.939H774.559V317.828Z" fill="#EF60F1"/>
<defs>
<linearGradient id="paint0_linear" x1="248.938" y1="274.5" x2="297.413" y2="310.689" gradientUnits="userSpaceOnUse">
<stop stop-color="#FD63FF" stop-opacity="0.7"/>
<stop offset="1" stop-color="#FC62FF"/>
</linearGradient>
<linearGradient id="paint1_linear" x1="149.761" y1="177.048" x2="181.014" y2="200.38" gradientUnits="userSpaceOnUse">
<stop stop-color="#FD63FF" stop-opacity="0.7"/>
<stop offset="1" stop-color="#FC62FF"/>
</linearGradient>
<radialGradient id="paint2_radial" cx="0" cy="0" r="1" gradientUnits="userSpaceOnUse" gradientTransform="translate(635.5 221) rotate(43.246) scale(334.972 523.774)">
<stop offset="0.300741" stop-color="#F95DFB"/>
<stop offset="0.892978" stop-color="#FD63FF" stop-opacity="0.5"/>
</radialGradient>
</defs>
</svg>
